<?xml version="1.0" encoding="iso-8859-1"?>
<!-- Generator: Adobe Illustrator 19.0.0, SVG Export Plug-In . SVG Version: 6.00 Build 0)  -->
<svg version="1.1" id="Capa_1" xmlns="http://www.w3.org/2000/svg" xmlns:xlink="http://www.w3.org/1999/xlink" x="0px" y="0px"
	 viewBox="0 0 512.01 512.01" style="enable-background:new 0 0 512.01 512.01;" xml:space="preserve">
<path style="fill:#C2DDF2;" d="M354.293,159.825c89.219,15.4,149.088,100.207,133.688,189.426
	c-1.254,7.267-2.985,14.426-5.213,21.456c-11.182,35.709-8.479,74.339,7.57,108.145l0,0l-73.971-20.98
	c-75.398,50.331-177.336,29.999-227.688-45.399s-29.999-177.357,45.399-227.688c35.061-23.402,77.799-32.422,119.348-25.176
	L354.293,159.825z"/>
<path style="fill:#1138F7;" d="M325.505,507.056c-60.042,0-119.024-29.004-154.798-82.558
	c-56.884-85.218-33.828-200.825,51.369-257.687c39.884-26.647,87.922-36.748,135.073-28.507c0.346,0.065,0.995,0.216,1.557,0.346
	c100.445,17.736,167.949,113.703,150.581,214.299c-1.406,8.219-3.374,16.395-5.883,24.289c-9.56,30.562-7.289,63.373,6.489,92.356
	c3.634,7.657,2.466,16.741-3.028,23.229c-5.515,6.489-14.275,9.149-22.408,6.835l-64.714-18.363
	C390.306,498.685,357.754,507.056,325.505,507.056z M325.094,178.599c-27.447,0-55.111,8.219-79.01,24.181
	c-31.665,21.153-53.207,53.337-60.648,90.668c-7.44,37.353,0.087,75.334,21.218,106.998
	c43.647,65.341,132.347,83.077,197.688,39.408c5.299-3.504,11.896-4.52,17.909-2.812l35.06,9.928
	c-5.213-27.317-3.677-55.673,4.823-82.752c1.925-6.078,3.439-12.328,4.52-18.622c13.345-77.345-38.716-151.121-116.039-164.466
	c-0.562-0.087-1.146-0.216-1.687-0.368l-0.865-0.216C340.473,179.248,332.816,178.599,325.094,178.599z"/>
<path style="fill:#FFFFFF;" d="M164.391,30.051C70.327,46.922,7.755,136.855,24.625,230.919c1.254,6.965,2.92,13.864,5.018,20.612
	c11.507,37.245,8.652,77.453-8.003,112.687l0,0l76.783-21.629c78.989,53.791,186.614,33.352,240.406-45.637
	s33.352-186.614-45.637-240.406c-37.98-25.89-84.721-35.58-129.882-26.928L164.391,30.051z"/>
<g>
	<path style="fill:#1138F7;" d="M195.407,394.282c-35.32,0-69.883-9.625-100.488-28.247l-67.417,18.99
		c-8.111,2.228-16.914-0.389-22.386-6.856s-6.662-15.551-3.05-23.208c14.405-30.41,16.849-64.887,6.9-97.049
		c-2.314-7.462-4.218-15.27-5.645-23.165C-5.85,183.552,5.44,131.859,35.137,89.185c28.442-40.879,70.51-68.802,118.981-79.14
		c1.622-0.779,3.331-1.341,5.126-1.687C209.682-1.267,262.933,9.742,305.39,38.66c42.955,29.264,71.981,73.517,81.671,124.604
		c9.69,51.088-1.103,102.889-30.367,145.865c-29.264,42.977-73.495,72.003-124.583,81.692
		C219.891,393.136,207.606,394.282,195.407,394.282z M98.423,320.939c4.304,0,8.543,1.298,12.177,3.763
		c33.417,22.732,73.668,31.102,113.444,23.619c39.732-7.549,74.144-30.129,96.919-63.546
		c22.775-33.438,31.146-73.733,23.619-113.465c-7.527-39.732-30.129-74.144-63.546-96.898C249.566,53,210.418,44.197,172.87,49.907
		c-1.449,0.649-3.006,1.125-4.65,1.428c-39.797,7.138-74.447,29.35-97.546,62.551s-31.903,73.409-24.765,113.206
		c1.103,6.078,2.552,12.091,4.391,18.017c8.825,28.572,10.274,58.528,4.499,87.294l37.764-10.641
		C94.487,321.22,96.455,320.939,98.423,320.939z"/>
	<path style="fill:#1138F7;" d="M108.156,232.866c-2.812,0-5.624-0.433-8.219-1.514c-2.812-1.081-4.975-2.812-7.138-4.758
		c-0.865-1.081-1.73-2.163-2.595-3.244c-0.865-1.298-1.514-2.379-1.947-3.893c-0.649-1.298-1.081-2.595-1.298-3.893
		c-0.216-1.514-0.433-2.812-0.433-4.326c0-2.812,0.649-5.624,1.73-8.219c1.081-2.595,2.595-4.975,4.542-7.138
		c8.219-8.003,22.494-8.003,30.713,0c1.947,2.163,3.461,4.542,4.542,7.138c1.081,2.595,1.73,5.407,1.73,8.219
		c0,1.514-0.216,2.812-0.433,4.326c-0.216,1.298-0.649,2.595-1.298,3.893c-0.433,1.514-1.081,2.595-1.947,3.893
		c-0.865,1.081-1.73,2.163-2.595,3.244C119.403,230.703,113.78,232.866,108.156,232.866z"/>
	<path style="fill:#1138F7;" d="M194.672,232.866c-2.812,0-5.624-0.433-8.219-1.514c-2.812-1.081-4.975-2.812-7.138-4.758
		c-0.865-1.081-1.73-2.163-2.595-3.244c-0.865-1.298-1.514-2.379-1.947-3.893c-0.649-1.298-1.081-2.595-1.298-3.893
		c-0.216-1.514-0.433-2.812-0.433-4.326c0-2.812,0.649-5.624,1.73-8.219c1.081-2.595,2.595-4.975,4.542-7.138
		c8.003-8.003,22.494-8.003,30.713,0c1.947,2.163,3.461,4.542,4.542,7.138c1.081,2.595,1.73,5.407,1.73,8.219
		c0,1.514-0.216,2.812-0.433,4.326c-0.216,1.298-0.649,2.595-1.298,3.893c-0.433,1.514-1.081,2.595-1.947,3.893
		c-0.865,1.081-1.73,2.163-2.595,3.244C205.919,230.703,200.295,232.866,194.672,232.866z"/>
	<path style="fill:#1138F7;" d="M281.188,232.866c-2.812,0-5.624-0.433-8.219-1.514c-2.812-1.081-4.975-2.812-7.138-4.758
		c-0.865-1.081-1.947-2.163-2.595-3.244c-0.865-1.298-1.514-2.379-1.947-3.893c-0.649-1.298-1.081-2.595-1.298-3.893
		c-0.216-1.514-0.433-2.812-0.433-4.326c0-5.624,2.379-11.247,6.272-15.14c2.163-2.163,4.326-3.677,7.138-4.758
		c3.893-1.73,8.219-2.163,12.545-1.298c1.298,0.216,2.595,0.649,3.893,1.298c1.298,0.433,2.595,1.298,3.893,1.947
		c1.081,0.865,2.163,1.73,3.244,2.812c3.893,3.893,6.272,9.517,6.272,15.14c0,5.84-2.379,11.247-6.272,15.357
		c-1.081,1.081-2.163,1.947-3.244,2.595c-1.298,0.865-2.595,1.514-3.893,2.163c-1.298,0.433-2.595,0.865-3.893,1.081
		C283.999,232.866,282.485,232.866,281.188,232.866z"/>
</g>
<g>
</g>
<g>
</g>
<g>
</g>
<g>
</g>
<g>
</g>
<g>
</g>
<g>
</g>
<g>
</g>
<g>
</g>
<g>
</g>
<g>
</g>
<g>
</g>
<g>
</g>
<g>
</g>
<g>
</g>
</svg>
